HIERARCHY
ROOT Hips
{
  OFFSET -455.874 92.8469 759.797
  CHANNELS 6 Xposition Yposition Zposition Zrotation Xrotation Yrotation
  JOINT Spine
  {
    OFFSET 0 8 1.31113e-05
    CHANNELS 6 Xposition Yposition Zposition Zrotation Xrotation Yrotation
    JOINT Spine1
    {
      OFFSET 3.94223e-05 8 0
      CHANNELS 6 Xposition Yposition Zposition Zrotation Xrotation Yrotation
      JOINT Spine2
      {
        OFFSET -1.50565e-05 8 0
        CHANNELS 6 Xposition Yposition Zposition Zrotation Xrotation Yrotation
        JOINT Spine3
        {
          OFFSET 0 8 0
          CHANNELS 6 Xposition Yposition Zposition Zrotation Xrotation Yrotation
          JOINT Neck
          {
            OFFSET -1.55178e-05 17.0003 2.99734e-05
            CHANNELS 6 Xposition Yposition Zposition Zrotation Xrotation Yrotation
            JOINT Head
            {
              OFFSET 0 10.8 -1.72171e-05
              CHANNELS 6 Xposition Yposition Zposition Zrotation Xrotation Yrotation
              End Site
              {
                OFFSET 0 20.25 0
              }
            }
          }
          JOINT LeftShoulder
          {
            OFFSET 5.00001 17 1.39203e-05
            CHANNELS 6 Xposition Yposition Zposition Zrotation Xrotation Yrotation
            JOINT LeftShoulder2
            {
              OFFSET 6.45 0 0
              CHANNELS 6 Xposition Yposition Zposition Zrotation Xrotation Yrotation
              JOINT LeftArm
              {
                OFFSET 6.44998 0 0
                CHANNELS 6 Xposition Yposition Zposition Zrotation Xrotation Yrotation
                JOINT LeftForeArm
                {
                  OFFSET -2.85668e-05 -32.4 -1.99906
                  CHANNELS 6 Xposition Yposition Zposition Zrotation Xrotation Yrotation
                  JOINT LeftHand
                  {
                    OFFSET 1.62303e-05 -25.65 1.99999
                    CHANNELS 6 Xposition Yposition Zposition Zrotation Xrotation Yrotation
                    JOINT LeftHandThumb1
                    {
                      OFFSET -0.499983 -1.49993 2.65
                      CHANNELS 6 Xposition Yposition Zposition Zrotation Xrotation Yrotation
                      JOINT LeftHandThumb2
                      {
                        OFFSET 0 -3.79999 3.70004
                        CHANNELS 6 Xposition Yposition Zposition Zrotation Xrotation Yrotation
                        JOINT LeftHandThumb3
                        {
                          OFFSET -1.60188e-05 -3.00006 2.69997
                          CHANNELS 6 Xposition Yposition Zposition Zrotation Xrotation Yrotation
                          End Site
                          {
                            OFFSET 2.60924e-05 -2.29999 1.79996
                          }
                        }
                      }
                    }
                    JOINT LeftHandIndex
                    {
                      OFFSET 2.74158e-05 -1.90004 1.60002
                      CHANNELS 6 Xposition Yposition Zposition Zrotation Xrotation Yrotation
                      JOINT LeftHandIndex1
                      {
                        OFFSET 0 -8.29998 1.89998
                        CHANNELS 6 Xposition Yposition Zposition Zrotation Xrotation Yrotation
                        JOINT LeftHandIndex2
                        {
                          OFFSET -1.93167e-05 -4.49997 2.87465e-05
                          CHANNELS 6 Xposition Yposition Zposition Zrotation Xrotation Yrotation
                          JOINT LeftHandIndex3
                          {
                            OFFSET -5.6043e-05 -3.39998 -3.52984e-05
                            CHANNELS 6 Xposition Yposition Zposition Zrotation Xrotation Yrotation
                            End Site
                            {
                              OFFSET 1.58175e-05 -2.59991 1.53591e-05
                            }
                          }
                        }
                      }
                    }
                    JOINT LeftHandMiddle
                    {
                      OFFSET -0.249997 -2.19999 0.399999
                      CHANNELS 6 Xposition Yposition Zposition Zrotation Xrotation Yrotation
                      JOINT LeftHandMiddle1
                      {
                        OFFSET 0 -8.29995 1
                        CHANNELS 6 Xposition Yposition Zposition Zrotation Xrotation Yrotation
                        JOINT LeftHandMiddle2
                        {
                          OFFSET -1.2039e-05 -4.65 1.45537e-05
                          CHANNELS 6 Xposition Yposition Zposition Zrotation Xrotation Yrotation
                          JOINT LeftHandMiddle3
                          {
                            OFFSET -3.48151e-05 -3.30001 -1.26685e-05
                            CHANNELS 6 Xposition Yposition Zposition Zrotation Xrotation Yrotation
                            End Site
                            {
                              OFFSET -5.59054e-05 -2.69999 0
                            }
                          }
                        }
                      }
                    }
                    JOINT LeftHandRing
                    {
                      OFFSET -0.500023 -2.15004 -0.799973
                      CHANNELS 6 Xposition Yposition Zposition Zrotation Xrotation Yrotation
                      JOINT LeftHandRing1
                      {
                        OFFSET 0 -7.75 -0.200001
                        CHANNELS 6 Xposition Yposition Zposition Zrotation Xrotation Yrotation
                        JOINT LeftHandRing2
                        {
                          OFFSET 0 -3.80223 -1.25918e-05
                          CHANNELS 6 Xposition Yposition Zposition Zrotation Xrotation Yrotation
                          JOINT LeftHandRing3
                          {
                            OFFSET 0 -3.39997 -2.60202e-05
                            CHANNELS 6 Xposition Yposition Zposition Zrotation Xrotation Yrotation
                            End Site
                            {
                              OFFSET -6.17576e-05 -2.60003 0
                            }
                          }
                        }
                      }
                    }
                    JOINT LeftHandPinky
                    {
                      OFFSET -0.750022 -1.75 -1.84998
                      CHANNELS 6 Xposition Yposition Zposition Zrotation Xrotation Yrotation
                      JOINT LeftHandPinky1
                      {
                        OFFSET 0 -7.14998 -1.00002
                        CHANNELS 6 Xposition Yposition Zposition Zrotation Xrotation Yrotation
                        JOINT LeftHandPinky2
                        {
                          OFFSET 0 -3.00208 0
                          CHANNELS 6 Xposition Yposition Zposition Zrotation Xrotation Yrotation
                          JOINT LeftHandPinky3
                          {
                            OFFSET -3.4869e-05 -2.34999 3.34376e-05
                            CHANNELS 6 Xposition Yposition Zposition Zrotation Xrotation Yrotation
                            End Site
                            {
                              OFFSET 1.54129e-05 -2.09999 -1.5132e-05
                            }
                          }
                        }
                      }
                    }
                  }
                }
              }
            }
          }
          JOINT RightShoulder
          {
            OFFSET -4.99999 17 1.85894e-05
            CHANNELS 6 Xposition Yposition Zposition Zrotation Xrotation Yrotation
            JOINT RightShoulder2
            {
              OFFSET -6.45 0 0
              CHANNELS 6 Xposition Yposition Zposition Zrotation Xrotation Yrotation
              JOINT RightArm
              {
                OFFSET -6.45003 0 0
                CHANNELS 6 Xposition Yposition Zposition Zrotation Xrotation Yrotation
                JOINT RightForeArm
                {
                  OFFSET -8.73186e-05 -32.4 -1.99998
                  CHANNELS 6 Xposition Yposition Zposition Zrotation Xrotation Yrotation
                  JOINT RightHand
                  {
                    OFFSET 4.41736e-05 -25.65 1.99999
                    CHANNELS 6 Xposition Yposition Zposition Zrotation Xrotation Yrotation
                    JOINT RightHandThumb1
                    {
                      OFFSET 0.499995 -1.5 2.65001
                      CHANNELS 6 Xposition Yposition Zposition Zrotation Xrotation Yrotation
                      JOINT RightHandThumb2
                      {
                        OFFSET -2.12634e-05 -3.80005 3.70005
                        CHANNELS 6 Xposition Yposition Zposition Zrotation Xrotation Yrotation
                        JOINT RightHandThumb3
                        {
                          OFFSET 0 -3.00002 2.69996
                          CHANNELS 6 Xposition Yposition Zposition Zrotation Xrotation Yrotation
                          End Site
                          {
                            OFFSET -1.76526e-05 -2.3 1.8
                          }
                        }
                      }
                    }
                    JOINT RightHandIndex
                    {
                      OFFSET 8.74223e-05 -1.89991 1.6
                      CHANNELS 6 Xposition Yposition Zposition Zrotation Xrotation Yrotation
                      JOINT RightHandIndex1
                      {
                        OFFSET -5.74538e-05 -8.30004 1.89996
                        CHANNELS 6 Xposition Yposition Zposition Zrotation Xrotation Yrotation
                        JOINT RightHandIndex2
                        {
                          OFFSET -1.30846e-05 -4.49999 4.59416e-05
                          CHANNELS 6 Xposition Yposition Zposition Zrotation Xrotation Yrotation
                          JOINT RightHandIndex3
                          {
                            OFFSET 4.10297e-05 -3.39999 0
                            CHANNELS 6 Xposition Yposition Zposition Zrotation Xrotation Yrotation
                            End Site
                            {
                              OFFSET -3.6777e-05 -2.59999 1.07895e-05
                            }
                          }
                        }
                      }
                    }
                    JOINT RightHandMiddle
                    {
                      OFFSET 0.250041 -2.19997 0.400036
                      CHANNELS 6 Xposition Yposition Zposition Zrotation Xrotation Yrotation
                      JOINT RightHandMiddle1
                      {
                        OFFSET -1.74546e-05 -8.29998 1.00001
                        CHANNELS 6 Xposition Yposition Zposition Zrotation Xrotation Yrotation
                        JOINT RightHandMiddle2
                        {
                          OFFSET -2.02913e-05 -4.64999 -4.52334e-05
                          CHANNELS 6 Xposition Yposition Zposition Zrotation Xrotation Yrotation
                          JOINT RightHandMiddle3
                          {
                            OFFSET 3.15545e-05 -3.29999 0
                            CHANNELS 6 Xposition Yposition Zposition Zrotation Xrotation Yrotation
                            End Site
                            {
                              OFFSET -5.68815e-05 -2.69998 7.41007e-05
                            }
                          }
                        }
                      }
                    }
                    JOINT RightHandRing
                    {
                      OFFSET 0.500029 -2.14998 -0.800019
                      CHANNELS 6 Xposition Yposition Zposition Zrotation Xrotation Yrotation
                      JOINT RightHandRing1
                      {
                        OFFSET 0 -7.75004 -0.200013
                        CHANNELS 6 Xposition Yposition Zposition Zrotation Xrotation Yrotation
                        JOINT RightHandRing2
                        {
                          OFFSET 2.25537e-05 -3.79999 0
                          CHANNELS 6 Xposition Yposition Zposition Zrotation Xrotation Yrotation
                          JOINT RightHandRing3
                          {
                            OFFSET -3.48111e-05 -3.39999 0
                            CHANNELS 6 Xposition Yposition Zposition Zrotation Xrotation Yrotation
                            End Site
                            {
                              OFFSET -2.53312e-05 -2.59996 1.61222e-05
                            }
                          }
                        }
                      }
                    }
                    JOINT RightHandPinky
                    {
                      OFFSET 0.750025 -1.74993 -1.84997
                      CHANNELS 6 Xposition Yposition Zposition Zrotation Xrotation Yrotation
                      JOINT RightHandPinky1
                      {
                        OFFSET 0 -7.15001 -0.999979
                        CHANNELS 6 Xposition Yposition Zposition Zrotation Xrotation Yrotation
                        JOINT RightHandPinky2
                        {
                          OFFSET 0 -3 2.47291e-05
                          CHANNELS 6 Xposition Yposition Zposition Zrotation Xrotation Yrotation
                          JOINT RightHandPinky3
                          {
                            OFFSET -2.50474e-05 -2.35002 -1.27409e-05
                            CHANNELS 6 Xposition Yposition Zposition Zrotation Xrotation Yrotation
                            End Site
                            {
                              OFFSET 2.50124e-05 -2.0999 1.0451e-05
                            }
                          }
                        }
                      }
                    }
                  }
                }
              }
            }
          }
        }
      }
    }
  }
  JOINT LeftUpLeg
  {
    OFFSET 7.99998 0 1.8204e-05
    CHANNELS 6 Xposition Yposition Zposition Zrotation Xrotation Yrotation
    JOINT LeftLeg
    {
      OFFSET 2.03361e-05 -45 -1.00002
      CHANNELS 6 Xposition Yposition Zposition Zrotation Xrotation Yrotation
      JOINT LeftFoot
      {
        OFFSET -3.28155e-05 -41 -2.00001
        CHANNELS 6 Xposition Yposition Zposition Zrotation Xrotation Yrotation
        JOINT LeftToeBase
        {
          OFFSET 2.91044e-05 -7.5 12.5
          CHANNELS 6 Xposition Yposition Zposition Zrotation Xrotation Yrotation
          JOINT LeftFootToe
          {
            OFFSET 0 0 4
            CHANNELS 6 Xposition Yposition Zposition Zrotation Xrotation Yrotation
            End Site
            {
              OFFSET 0 0 0
            }
          }
        }
      }
    }
  }
  JOINT RightUpLeg
  {
    OFFSET -7.99998 0 -1.8204e-05
    CHANNELS 6 Xposition Yposition Zposition Zrotation Xrotation Yrotation
    JOINT RightLeg
    {
      OFFSET -2.49592e-05 -45 -0.999938
      CHANNELS 6 Xposition Yposition Zposition Zrotation Xrotation Yrotation
      JOINT RightFoot
      {
        OFFSET 5.25084e-05 -41 -2.0001
        CHANNELS 6 Xposition Yposition Zposition Zrotation Xrotation Yrotation
        JOINT RightToeBase
        {
          OFFSET 0 -7.5 12.5
          CHANNELS 6 Xposition Yposition Zposition Zrotation Xrotation Yrotation
          JOINT RightFootToe
          {
            OFFSET 0 0 4
            CHANNELS 6 Xposition Yposition Zposition Zrotation Xrotation Yrotation
            End Site
            {
              OFFSET 0 0 0
            }
          }
        }
      }
    }
  }
}
MOTION
Frames:	2
Frame Time:	0.0111111
-455.874 92.8469 759.797 -3.16157 -2.3904 -142.791 -1.54449e-05 8 3.39104e-06 -5.22025 0.200983 13.0579 3.05323e-06 8 -2.13291e-05 0.617634 -0.186463 5.65943 7.34485e-06 8 3.403e-05 0.306751 -0.100846 2.83117 -1.13687e-13 8 0 0.306335 -0.100796 2.82771 -0.000172248 17 -0.00025595 1.21419 1.95909 15.0827 3.49616e-05 10.8 1.10897e-05 -1.31256 -2.63755 35.6916 4.9998 17 -0.000193509 -6.90023 1.60731 5.87541 6.45 2.84217e-14 -5.68434e-14 -0.375913 0.812745 -0.250714 6.45002 0.000119746 0.000350531 54.0583 -26.6831 21.0385 -4.90135e-06 -32.4 -1.99695 -41.0776 -44.8947 -44.2699 -1.03261e-05 -25.65 2 -6.12351 -37.7361 -17.9267 -0.499992 -1.49998 2.64999 8.55813 -11.6459 -9.06823 -4.13717e-07 -3.79998 3.70004 -0.1186 7.40944 0.00999841 3.5402e-07 -3.00004 2.69995 -0.0234359 37.779 0.0183185 1.35361e-05 -1.90009 1.59998 6.03858e-06 -8.24652e-07 -1.03156e-05 6.88047e-06 -8.29995 1.9 -3.29139 13.7126 0.489494 -2.07565e-06 -4.49996 -5.41051e-06 -78.8574 -0.0158664 0.00859073 -4.28726e-05 -3.4239 2.15166e-05 -64.1472 -0.0258809 -0.0153672 -0.249993 -2.2 0.4 6.03858e-06 -8.24652e-07 -1.03156e-05 -1.49941e-05 -8.29998 0.999993 -3.0041 9.8334 0.450522 -2.49042e-09 -4.64997 1.1277e-06 -45.1125 0.0800416 -0.0458824 -2.56664e-05 -3.30004 1.15377e-05 -31.3928 0.0611336 0.00324744 -0.500014 -2.15006 -0.800018 6.03858e-06 -8.24652e-07 -1.03156e-05 -8.50461e-06 -7.75001 -0.199999 -2.30383 11.7294 0.500017 1.00437e-05 -3.84935 9.02652e-07 -20.3985 0.0596437 -0.048886 -1.27827e-05 -3.40003 1.35011e-05 -14.8812 0.046663 -0.0197648 -0.75002 -1.75003 -1.85001 6.03858e-06 -8.24652e-07 -1.03156e-05 -1.75934e-05 -7.15 -0.999996 -2.46555 13.3314 0.647532 1.19021e-05 -3.00609 8.6701e-07 -14.7288 0.00336679 -0.0126993 -1.80488e-05 -2.35002 5.30195e-06 2.28167e-05 0.000171236 -0.00314542 -5.0002 16.9999 -0.000337222 -3.92323 1.85303 10.0592 -6.45 0 -2.84217e-14 -2.09061 0.402499 -3.18283 -6.44999 0.000195905 -0.000384437 -22.8479 -10.1929 -20.0639 -7.16054e-05 -32.4 -1.99994 57.2953 -63.6858 48.4085 5.84589e-05 -25.65 1.99999 -32.2791 34.2127 3.96097 0.499998 -1.50004 2.65002 -140.462 -9.20038 -78.8012 -5.89644e-05 -3.80006 3.70003 0.422332 28.2706 0.136078 -8.6633e-06 -3 2.69999 0.150103 40.8738 -0.57743 6.03382e-05 -1.89997 1.6 2.68601e-06 -4.73387e-06 8.33582e-07 -6.11137e-05 -8.30001 1.89996 41.5634 -0.903538 -0.1905 -3.22398e-05 -4.49998 4.85188e-05 6.26676 -0.119422 0.0370417 4.50079e-05 -3.39999 -1.6755e-05 5.68893 -0.0975768 0.0415931 0.249969 -2.19998 0.400045 2.68601e-06 -4.73387e-06 8.33582e-07 2.38203e-05 -8.29996 0.999989 49.272 3.43193 -3.44189 -1.20684e-05 -4.65003 -2.47509e-05 51.3982 -0.0520229 0.225701 3.49888e-05 -3.29996 -1.01941e-05 33.2984 0.0428456 0.147464 0.499994 -2.15003 -0.799997 2.68601e-06 -4.73387e-06 8.33582e-07 3.32831e-05 -7.75001 -0.200036 79.4528 0.500009 -8.02222 4.06855e-06 -3.8 1.66202e-05 51.8017 0.00327246 0.0273528 -2.5278e-05 -3.39995 -9.48401e-06 35.7575 0.0120143 0.0155503 0.750031 -1.74996 -1.84996 2.68601e-06 -4.73387e-06 8.33582e-07 -3.73632e-05 -7.15 -0.999996 83.9251 -1.66994 -9.75011 -5.09541e-06 -2.99998 2.36568e-05 37.6031 -0.00157702 0.0186884 -1.51668e-05 -2.35003 -1.12032e-05 26.6375 0.00412513 0.010431 8.00001 7.23544e-08 -1.02509e-05 10.1165 -16.8651 15.0204 6.78584e-06 -45 -1.00005 0.778735 7.34768 -0.802026 4.7885e-06 -41 -2.00001 -10.342 12.1409 -25.731 -1.91192e-05 -7.5 12.5 -1.79863e-07 3.40488e-06 -3.3484e-06 0 0 4 -4.65543 -4.91586 17.6222 -8.00001 -7.23545e-08 1.02509e-05 -11.0676 -7.52272 1.34979 8.32895e-06 -45 -1.00001 0.0891071 18.1402 -7.68801 -5.4844e-06 -41 -2.00006 15.1757 -9.9452 -27.5667 2.94971e-05 -7.5 12.5 -0.000181078 -1.25025e-05 1.72338e-05 -5.68434e-14 0 4 -5.47026 2.25661 7.77992 
-455.934 92.8398 759.801 -3.18404 -2.40036 -142.849 -1.54449e-05 8 3.39104e-06 -5.19943 0.139133 13.1512 3.05323e-06 8 -2.13291e-05 0.605899 -0.153551 5.67869 7.34485e-06 8 3.403e-05 0.301403 -0.0842595 2.84087 1.13687e-13 8 5.68434e-14 0.300511 -0.0844355 2.83505 -0.000172248 17 -0.00025595 1.24825 2.01916 15.219 3.49616e-05 10.8 1.10897e-05 -1.46486 -2.32842 36.0194 4.9998 17 -0.000193509 -6.83757 1.52143 5.73398 6.45 2.84217e-14 0 -0.390421 0.791642 -0.250602 6.45002 0.000119746 0.000350531 54.5676 -26.7467 21.048 -4.90135e-06 -32.4 -1.99695 -41.1604 -44.8826 -44.2057 -1.03261e-05 -25.65 2 -6.26092 -37.8995 -18.0904 -0.499992 -1.49998 2.64999 8.49032 -11.2402 -9.07325 -4.13717e-07 -3.79998 3.70004 -0.1186 7.40944 0.00999841 3.5402e-07 -3.00004 2.69995 -0.0236143 38.2173 0.0184283 1.35361e-05 -1.90009 1.59998 6.03858e-06 -8.24652e-07 -1.03156e-05 6.88047e-06 -8.29995 1.9 -4.0699 14.0502 0.600166 -2.07565e-06 -4.49996 -5.41051e-06 -79.4533 -0.0103693 0.00859073 -4.28726e-05 -3.4239 2.15166e-05 -65.1127 -0.0188937 -0.00850534 -0.249993 -2.2 0.4 6.03858e-06 -8.24652e-07 -1.03156e-05 -1.49941e-05 -8.29998 0.999993 -3.42875 8.65821 0.466358 -2.49065e-09 -4.64997 1.1277e-06 -47.4762 0.124066 -0.0541303 -2.56664e-05 -3.30004 1.15377e-05 -32.9667 0.091868 0.0184167 -0.500014 -2.15006 -0.800018 6.03858e-06 -8.24652e-07 -1.03156e-05 -8.50461e-06 -7.75001 -0.199999 -2.35226 11.2214 0.490954 1.00437e-05 -3.84935 9.02652e-07 -24.1124 0.108602 -0.0650843 -1.27827e-05 -3.40003 1.35011e-05 -17.3048 0.0778095 -0.0168973 -0.75002 -1.75003 -1.85001 6.03858e-06 -8.24652e-07 -1.03156e-05 -1.75934e-05 -7.15 -0.999996 -2.53734 13.519 0.668802 1.19021e-05 -3.00609 8.67009e-07 -14.5435 0.0112602 -0.00784385 -1.80488e-05 -2.35002 5.30195e-06 -0.290115 0.00884534 -0.00262895 -5.0002 16.9999 -0.000337222 -3.81795 1.72556 10.0882 -6.45 0 0 -2.10281 0.409598 -3.20509 -6.44999 0.000195905 -0.000384437 -22.9384 -10.2443 -19.9564 -7.16054e-05 -32.4 -1.99994 56.8444 -64.2277 49.2636 5.84589e-05 -25.65 1.99999 -33.4307 33.9273 6.24905 0.499998 -1.50004 2.65002 -136.597 -10.2434 -75.2596 -5.89644e-05 -3.80006 3.70003 0.492902 27.8779 0.159255 -8.6633e-06 -3 2.69999 0.159224 40.892 -0.591151 6.03382e-05 -1.89997 1.6 2.68601e-06 -4.73387e-06 8.33582e-07 -6.11137e-05 -8.30001 1.89996 40.9038 -1.01442 -0.143887 -3.22398e-05 -4.49998 4.85188e-05 5.90549 -0.0630373 0.0185966 4.50079e-05 -3.39999 -1.6755e-05 5.39575 -0.0512026 0.0211052 0.249969 -2.19998 0.400045 2.68601e-06 -4.73387e-06 8.33582e-07 2.38203e-05 -8.29996 0.999989 48.5763 3.79612 -3.51589 -1.20684e-05 -4.65003 -2.47509e-05 49.3388 -0.0544852 0.240337 3.49888e-05 -3.29996 -1.01941e-05 31.9599 0.0424967 0.155192 0.499994 -2.15003 -0.799997 2.68601e-06 -4.73387e-06 8.33582e-07 3.32831e-05 -7.75001 -0.200036 78.8839 0.533496 -7.83498 4.06855e-06 -3.8 1.66202e-05 51.0732 0.0107098 0.0696887 -2.5278e-05 -3.39995 -9.48401e-06 35.2616 0.0318825 0.0356257 0.750031 -1.74996 -1.84996 2.68601e-06 -4.73387e-06 8.33582e-07 -3.73632e-05 -7.15 -0.999996 83.4072 -1.70372 -9.47629 -5.09541e-06 -2.99998 2.36568e-05 37.1036 -0.00610441 0.0597629 -1.51668e-05 -2.35003 -1.12032e-05 26.3417 0.0123897 0.0337262 8.00001 7.23545e-08 -1.02509e-05 10.1033 -16.9533 15.0067 6.78584e-06 -45 -1.00005 0.778043 7.62683 -0.827211 4.7885e-06 -41 -2.00001 -10.3295 11.9473 -25.657 -1.91192e-05 -7.5 12.5 -1.79863e-07 3.40488e-06 -3.3484e-06 0 8.88178e-16 4 -4.69402 -4.91344 17.4937 -8.00001 -7.23545e-08 1.02509e-05 -11.1395 -7.6055 1.314 8.32895e-06 -45 -1.00001 0.0934498 18.3354 -7.69859 -5.4844e-06 -41 -2.00006 15.2304 -9.93338 -27.5333 2.94971e-05 -7.5 12.5 -0.000181078 -1.25025e-05 1.72338e-05 0 0 4 -5.5199 2.24449 7.71236 
